<?xml version="1.0" encoding="utf-8"?>
<!-- Generator: Adobe Illustrator 25.2.0, SVG Export Plug-In . SVG Version: 6.00 Build 0)  -->
<svg version="1.1" id="Capa_1" xmlns="http://www.w3.org/2000/svg" xmlns:xlink="http://www.w3.org/1999/xlink" x="0px" y="0px"
	 viewBox="0 0 512 512" style="enable-background:new 0 0 512 512;" xml:space="preserve">
<style type="text/css">
	.st0{fill:#646262;}
</style>
<g>
	<circle class="st0" cx="256" cy="196" r="10"/>
	<path class="st0" d="M181,296h150c5.5,0,10-4.5,10-10v-94l13.5,11.6c4.2,3.6,10.5,3.1,14.1-1.1s3.1-10.5-1.1-14.1l-105-90
		c-3.7-3.2-9.3-3.2-13,0l-105,90c-4.2,3.6-4.7,9.9-1.1,14.1s9.9,4.7,14.1,1.1L171,192v94C171,291.5,175.5,296,181,296L181,296z
		 M191,174.9l65-55.7l65,55.7V276h-55v-40c0-5.5-4.5-10-10-10s-10,4.5-10,10v40h-55V174.9z"/>
	<path class="st0" d="M248.8,509c1.9,1.9,4.5,3,7.2,3s5.3-1.1,7.2-3C327,443.1,446,294.9,446,196c0-34.9-9.5-69.5-27.4-100
		c-2.8-4.8-8.9-6.4-13.7-3.6c-4.8,2.8-6.4,8.9-3.6,13.7c16.1,27.5,24.7,58.6,24.7,89.9c0,101.2-136.8,255.4-170,291.4
		C222.8,451.4,86,297.2,86,196c0-95.4,77.9-176,170-176c30.4,0,60.3,8.7,86.6,25.3c4.7,2.9,10.8,1.5,13.8-3.1s1.5-10.8-3.1-13.8
		C323.8,9.8,290.2,0,256,0C149.4,0,66,92.8,66,196C66,294.8,184.8,442.9,248.8,509L248.8,509z"/>
	<circle class="st0" cx="383" cy="65" r="10"/>
</g>
</svg>
