<svg id="Capa_1" enable-background="new 0 0 512 512" height="512" viewBox="0 0 512 512" width="512" xmlns="http://www.w3.org/2000/svg"><g><g><path d="m124.679 346.333h76.772c4.143 0 7.5-3.358 7.5-7.5v-56.569c0-4.142-3.357-7.5-7.5-7.5h-76.772c-4.143 0-7.5 3.358-7.5 7.5v56.569c0 4.143 3.357 7.5 7.5 7.5zm7.5-56.569h61.772v41.569h-61.772z"/><path d="m201.451 363.659h-10.101c-4.143 0-7.5 3.358-7.5 7.5s3.357 7.5 7.5 7.5h10.102c4.143 0 7.5-3.358 7.5-7.5s-3.358-7.5-7.501-7.5z"/><path d="m478.24 464.67h-18.77v-173.67c0-4.142-3.357-7.5-7.5-7.5s-7.5 3.358-7.5 7.5v173.67h-203.194v-214.731c0-4.142-3.357-7.5-7.5-7.5h-141.422c-4.143 0-7.5 3.358-7.5 7.5v214.731h-17.324v-38.67c0-4.142-3.357-7.5-7.5-7.5s-7.5 3.358-7.5 7.5v38.67h-18.77c-4.143 0-7.5 3.358-7.5 7.5v32.33c0 4.142 3.357 7.5 7.5 7.5h291.61c4.143 0 7.5-3.358 7.5-7.5s-3.357-7.5-7.5-7.5h-284.11v-17.33h429.48v17.33h-110.37c-4.143 0-7.5 3.358-7.5 7.5s3.357 7.5 7.5 7.5h117.87c4.143 0 7.5-3.358 7.5-7.5v-32.33c0-4.142-3.357-7.5-7.5-7.5zm-251.964-207.231v207.231h-56.434l-16.925-22.565c-4.58-6.108-11.873-9.755-19.508-9.755h-4.081c-3.024 0-5.88-1.469-7.638-3.93-4.566-6.394-11.984-10.212-19.844-10.212h-1.993v-160.769zm-126.422 175.769h1.993c3.024 0 5.88 1.469 7.638 3.929 4.566 6.395 11.985 10.213 19.844 10.213h4.081c2.938 0 5.745 1.403 7.508 3.754l10.175 13.566h-51.239z"/><path d="m258.602 249.939v153.545c0 4.142 3.357 7.5 7.5 7.5h153.545c4.143 0 7.5-3.358 7.5-7.5v-153.545c0-4.142-3.357-7.5-7.5-7.5h-153.545c-4.143 0-7.5 3.358-7.5 7.5zm153.544 146.045h-138.544v-17.325h138.545v17.325zm0-32.325h-51.242l10.179-13.571c1.763-2.351 4.569-3.754 7.508-3.754h4.081c7.858 0 15.276-3.817 19.845-10.212 1.757-2.461 4.612-3.93 7.637-3.93h1.993v31.467zm-138.544-106.22h138.545v59.752h-1.993c-7.858 0-15.276 3.817-19.845 10.212-1.757 2.461-4.612 3.93-7.637 3.93h-4.081c-7.635 0-14.928 3.646-19.508 9.754l-16.929 22.571h-68.553v-106.219z"/><path d="m256 111.709c-27.529 0-49.927 22.397-49.927 49.927s22.397 49.927 49.927 49.927 49.927-22.397 49.927-49.927-22.398-49.927-49.927-49.927zm0 84.854c-19.259 0-34.927-15.668-34.927-34.927s15.668-34.927 34.927-34.927 34.927 15.668 34.927 34.927-15.668 34.927-34.927 34.927z"/><path d="m506.094 212.242c-.33-4.78-2.636-9.275-6.324-12.334l-232.534-192.834c-6.512-5.399-15.961-5.399-22.473 0h.001l-86.321 71.583v-31.332h1.591c7.478 0 13.562-6.083 13.562-13.561v-20.203c0-7.478-6.084-13.561-13.562-13.561h-98.995c-7.478 0-13.562 6.083-13.562 13.561v20.203c0 7.478 6.084 13.561 13.562 13.561h1.591v110.787l-50.4 41.795c-3.688 3.059-5.993 7.554-6.323 12.334-.331 4.779 1.332 9.548 4.562 13.085l12.606 13.801c6.344 6.947 16.989 7.685 24.232 1.679l5.223-4.331v154.525c0 4.142 3.357 7.5 7.5 7.5s7.5-3.358 7.5-7.5v-166.962l186.809-154.91c.963-.798 2.359-.798 3.322 0l186.809 154.91v31.962c0 4.142 3.357 7.5 7.5 7.5s7.5-3.358 7.5-7.5v-19.523l5.223 4.331c3.284 2.724 7.268 4.061 11.233 4.06 4.778 0 9.531-1.942 12.999-5.739l12.605-13.802c3.232-3.537 4.895-8.306 4.564-13.085zm-369.74-115.266h-18.318v-17.326h25.407v11.446zm-58.724-17.326h25.406v17.325h-25.406zm-15.152-64.65h96.118v17.325h-96.118zm80.965 32.325v17.325h-65.813v-17.325zm-65.813 64.651h40.636l-40.636 33.697zm412.825 103.235-12.606 13.802c-.938 1.027-2.512 1.136-3.582.248l-207.032-171.679c-3.255-2.699-7.245-4.049-11.235-4.049s-7.98 1.35-11.235 4.049l-207.032 171.679c-1.068.888-2.645.779-3.582-.248l-12.607-13.802c-.653-.716-.702-1.519-.674-1.934s.188-1.205.935-1.824l232.534-192.832h.001c.961-.798 2.358-.798 3.321 0l232.533 192.833c.747.619.907 1.409.936 1.824s-.021 1.217-.675 1.933z"/></g></g></svg>