<?xml version="1.0" encoding="utf-8"?>
<!-- Generator: Adobe Illustrator 25.2.0, SVG Export Plug-In . SVG Version: 6.00 Build 0)  -->
<svg version="1.1" id="Layer_1" xmlns="http://www.w3.org/2000/svg" xmlns:xlink="http://www.w3.org/1999/xlink" x="0px" y="0px"
	 viewBox="0 0 683 616" style="enable-background:new 0 0 683 616;" xml:space="preserve">
<style type="text/css">
	.st0{fill:#231F20;}
	.st1{fill:url(#SVGID_1_);}
	.st2{fill:url(#SVGID_2_);}
	.st3{fill:url(#SVGID_3_);}
	.st4{fill:url(#SVGID_4_);}
	.st5{fill:url(#SVGID_5_);}
	.st6{fill:url(#SVGID_6_);}
	.st7{fill:url(#SVGID_7_);}
	.st8{fill:url(#SVGID_8_);}
	.st9{fill:url(#SVGID_9_);}
	.st10{fill:url(#SVGID_10_);}
	.st11{fill:#FFFFFF;}
</style>
<g>
	<path class="st11" d="M331.2,362.5c-10.9,0-19.1-2.2-24.5-6.6c-4.9-3.9-7.8-9.5-8.6-16.7c-0.2-1.4,1-2.6,2.4-2.6H319
		c0.1,1.4,0.4,2.7,0.9,3.9c0.4,1.2,1.1,2.3,2.1,3.1c0.9,0.9,2.1,1.7,3.6,2.2c1.5,0.5,3.4,0.8,5.7,0.8c3.2,0,5.7-0.7,7.4-2.1
		c1.7-1.4,2.5-3.3,2.5-5.6c0-1.2-0.2-2.1-0.6-3c-0.4-0.8-1.1-1.5-2-2.1c-0.9-0.5-2.2-0.9-3.8-1.3c-1.6-0.4-3.5-0.7-5.8-1.1
		c-5.5-0.6-10.1-1.6-13.8-2.8c-3.7-1.2-6.7-2.8-8.9-4.7c-2.3-1.9-4-4.3-5-7.1c-1-2.8-1.5-6.2-1.5-10c0-3.5,0.7-6.7,2.1-9.6
		c1.4-3,3.3-5.5,5.9-7.7c2.6-2.2,5.7-3.8,9.5-5c3.7-1.2,7.9-1.8,12.5-1.8c9.4,0,16.6,2,21.7,5.9c4.5,3.5,7.4,8.7,8.4,15.5
		c0.2,1.4-0.9,2.7-2.3,2.7h-16c-1.1,0-2-0.8-2.3-1.9c-0.5-1.8-1.4-3.3-2.6-4.3c-1.6-1.4-3.9-2.1-7-2.1c-3,0-5.3,0.6-6.8,1.8
		c-1.5,1.2-2.2,2.8-2.2,4.8c0,1.1,0.2,2,0.5,2.8c0.4,0.8,1,1.5,1.9,2.1c0.9,0.6,2.1,1.2,3.6,1.6c1.5,0.4,3.5,0.8,5.9,1.1
		c4.9,0.6,9.2,1.4,12.9,2.3c3.7,1,6.8,2.4,9.3,4.2c2.4,1.9,4.3,4.2,5.6,7c1.3,2.8,1.9,6.3,1.9,10.5c0,3.5-0.7,6.9-2.1,10
		c-1.4,3.1-3.4,5.9-6.1,8.2c-2.7,2.3-5.9,4.1-9.8,5.5C340.6,361.8,336.2,362.5,331.2,362.5z"/>
	<path class="st11" d="M362.6,283.9h17.5c1.1,0,2.1,0.8,2.3,1.9l7.3,35.5c0.5,2.5,4,2.5,4.6,0l7.6-35.5c0.2-1.1,1.2-1.8,2.3-1.8
		h15.9c1.1,0,2,0.7,2.3,1.8l8.5,36.6c0.6,2.4,4,2.4,4.6,0l7.9-36.6c0.2-1.1,1.2-1.8,2.3-1.8h15.7c1.5,0,2.6,1.4,2.3,2.9l-17,72.6
		c-0.2,1.1-1.2,1.8-2.3,1.8h-19.4c-1.1,0-2-0.7-2.3-1.8l-9.2-38c-0.6-2.4-4-2.4-4.5,0l-9.3,38c-0.3,1-1.2,1.8-2.3,1.8h-17.9
		c-1.1,0-2-0.7-2.3-1.8l-16.9-72.6C360,285.3,361.1,283.9,362.6,283.9z"/>
	<path class="st11" d="M469.9,283.9h48.7c1.3,0,2.3,1,2.3,2.3v12.4c0,1.3-1,2.3-2.3,2.3h-26.7c-1.3,0-2.3,1-2.3,2.3v8.6
		c0,1.3,1,2.3,2.3,2.3h20.3c1.3,0,2.3,1,2.3,2.3v11.1c0,1.3-1,2.3-2.3,2.3h-20.3c-1.3,0-2.3,1-2.3,2.3v9.4c0,1.3,1,2.3,2.3,2.3h28.4
		c1.3,0,2.3,1,2.3,2.3v12.4c0,1.3-1,2.3-2.3,2.3h-50.4c-1.3,0-2.3-1-2.3-2.3v-72.6C467.6,285,468.6,283.9,469.9,283.9z"/>
	<path class="st11" d="M530.4,283.9H548c1.3,0,2.3,1,2.3,2.3v55.5c0,1.3,1,2.3,2.3,2.3h24.5c1.3,0,2.3,1,2.3,2.3v12.4
		c0,1.3-1,2.3-2.3,2.3h-46.8c-1.3,0-2.3-1-2.3-2.3v-72.6C528.1,285,529.1,283.9,530.4,283.9z"/>
	<path class="st11" d="M586.9,283.9h17.6c1.3,0,2.3,1,2.3,2.3v55.5c0,1.3,1,2.3,2.3,2.3h24.5c1.3,0,2.3,1,2.3,2.3v12.4
		c0,1.3-1,2.3-2.3,2.3h-46.8c-1.3,0-2.3-1-2.3-2.3v-72.6C584.6,285,585.6,283.9,586.9,283.9z"/>
</g>
<g>
	<path class="st11" d="M214.4,318.9c8,2.8,18.9,1,27.1,0.9c4.3-0.1,8.6-0.2,12.9-0.3c0.4-3.8,0.7-7.6,0.7-11.5
		c0-55.1-44.6-99.7-99.7-99.7S55.6,252.9,55.6,308c0,1.3,0,2.6,0.1,3.9c44-9.5,86.2-35.1,131.2-34
		C219.7,278.8,191.6,310.8,214.4,318.9z"/>
	<path class="st11" d="M214.4,336.8c-22.8-8.1,5.3-40.1-27.5-41c-44.3-1.1-85.8,23.6-129,33.4c9.8,44.8,49.7,78.4,97.4,78.4
		c44.8,0,82.7-29.6,95.3-70.2c-3.1,0.1-6.1,0.2-9.2,0.2C233.2,337.9,222.3,339.7,214.4,336.8z"/>
</g>
<path class="st11" d="M155.3,425.3C90.6,425.3,38,372.7,38,308s52.6-117.3,117.3-117.3S272.6,243.3,272.6,308S220,425.3,155.3,425.3
	z M155.3,198.5c-60.4,0-109.5,49.1-109.5,109.5s49.1,109.5,109.5,109.5S264.8,368.4,264.8,308S215.7,198.5,155.3,198.5z"/>
</svg>
