<?xml version="1.0" encoding="utf-8"?>
<!-- Generator: Adobe Illustrator 25.4.3, SVG Export Plug-In . SVG Version: 6.00 Build 0)  -->
<svg version="1.1" id="Layer_1" xmlns="http://www.w3.org/2000/svg" xmlns:xlink="http://www.w3.org/1999/xlink" x="0px" y="0px"
	 viewBox="0 0 600 600" style="enable-background:new 0 0 600 600;" xml:space="preserve">
<style type="text/css">
	.st0{fill:#333333;}
</style>
<g>
	<g>
		<g>
			<path class="st0" d="M528,404.9h-43.8c-3.8,0-6.9,3.1-6.9,6.9s3.1,6.9,6.9,6.9H528c3.8,0,6.9-3.1,6.9-6.9S531.8,404.9,528,404.9z
				"/>
			<path class="st0" d="M528,434.5H383.7c-133.6,0-242.7-106.9-246.4-239.6h15.9c3.6,124,105.7,223.8,230.5,223.8h68.4
				c3.8,0,6.9-3.1,6.9-6.9s-3.1-6.9-6.9-6.9h-68.4c-111.9,0-204.3-85.2-215.7-194.2c3.3,1.5,6.9,2.2,10.4,2.2c6.5,0,13-2.5,17.9-7.4
				c3.2-3.2,5.4-7,6.5-11.2l83.9,83.9c-4.2,1.1-8.1,3.4-11.2,6.5c-4.8,4.8-7.4,11.2-7.4,17.9s2.6,13.1,7.4,17.9s11.2,7.4,17.9,7.4
				c6.8,0,13.1-2.6,17.9-7.4c3.4-3.4,5.6-7.6,6.7-11.9c7.4,5.2,16.1,8.1,25.3,8.1h29.1c11.9,0,21.7-9.7,21.7-21.7
				c0-11.9-9.7-21.7-21.7-21.7h-29.3L207.7,137.8v-29.3c0-11.9-9.7-21.7-21.7-21.7s-21.7,9.7-21.7,21.7v29.1c0,9.2,2.8,18,8.1,25.3
				c-4.4,1.1-8.5,3.3-11.9,6.7c-3.3,3.3-5.5,7.3-6.6,11.5H73c-3.8,0-6.9,3.1-6.9,6.9v39.1c0,3.8,3.1,6.9,6.9,6.9s6.9-3.1,6.9-6.9
				v-32.2h43.7c1.7,66.9,28.6,129.6,76.1,177.1c49.1,49.2,114.5,76.2,184,76.2H528c3.8,0,6.9-3.1,6.9-6.9
				C534.8,437.6,531.8,434.5,528,434.5L528,434.5z M301.7,310.9c-2.2,2.2-5.1,3.4-8.2,3.4s-6-1.2-8.2-3.4c-2.2-2.2-3.4-5.1-3.4-8.2
				c0-3.1,1.2-6,3.4-8.2c2.2-2.2,5.1-3.4,8.2-3.4c3.1,0,6,1.2,8.2,3.4C306.3,299,306.3,306.4,301.7,310.9z M178.1,108.6
				c0-4.4,3.6-7.9,7.9-7.9c4.4,0,7.9,3.6,7.9,7.9v32.1c0,1.8,0.7,3.6,2,4.9l139.6,139.6c1.3,1.3,3,2,4.9,2h32.1
				c4.4,0,7.9,3.6,7.9,7.9c0,4.4-3.6,7.9-7.9,7.9h-29.1c-8,0-15.6-3.1-21.3-8.8L186.9,158.9c-5.7-5.7-8.8-13.3-8.8-21.3L178.1,108.6
				z M170.2,179.4c4.5-4.5,11.9-4.5,16.4,0c2.2,2.2,3.4,5.1,3.4,8.2s-1.2,6-3.4,8.2c-4.5,4.5-11.9,4.5-16.4,0
				C165.7,191.3,165.7,183.9,170.2,179.4z"/>
			<path class="st0" d="M528,491.8H316.5c-3.8,0-6.9,3.1-6.9,6.9s3.1,6.9,6.9,6.9H528c3.8,0,6.9-3.1,6.9-6.9S531.8,491.8,528,491.8z
				"/>
			<path class="st0" d="M284.5,491.8H79.9V259.1c0-3.8-3.1-6.9-6.9-6.9s-6.9,3.1-6.9,6.9v239.6c0,3.8,3.1,6.9,6.9,6.9h211.5
				c3.8,0,6.9-3.1,6.9-6.9S288.3,491.8,284.5,491.8L284.5,491.8z"/>
		</g>
	</g>
</g>
</svg>
