<svg id="Capa_1" enable-background="new 0 0 512 512" height="512" viewBox="0 0 512 512" width="512" xmlns="http://www.w3.org/2000/svg"><g><g><path d="m504.5 374.731h-47.83c-4.142 0-7.5 3.358-7.5 7.5s3.358 7.5 7.5 7.5h47.83c4.142 0 7.5-3.358 7.5-7.5s-3.358-7.5-7.5-7.5z"/><path d="m504.5 407.062h-157.59c-145.973 0-265.184-116.758-269.171-261.79h17.33c3.982 135.474 115.424 244.46 251.84 244.46h74.76c4.142 0 7.5-3.358 7.5-7.5s-3.358-7.5-7.5-7.5h-74.76c-122.285 0-223.225-93.119-235.656-212.173 3.615 1.628 7.509 2.448 11.405 2.448 7.094 0 14.188-2.7 19.589-8.101 3.457-3.457 5.88-7.669 7.132-12.263l91.668 91.668c-4.593 1.252-8.805 3.675-12.262 7.131-5.232 5.232-8.114 12.189-8.114 19.589s2.882 14.357 8.114 19.589 12.189 8.114 19.589 8.114 14.357-2.882 19.589-8.114c3.727-3.727 6.166-8.26 7.321-13.043 8.038 5.717 17.621 8.812 27.684 8.812h31.75c13.048 0 23.663-10.615 23.663-23.663 0-13.047-10.615-23.663-23.663-23.663h-31.992l-148.1-148.1v-31.992c0-13.048-10.615-23.663-23.663-23.663s-23.663 10.615-23.663 23.663v31.751c0 10.063 3.094 19.646 8.812 27.684-4.783 1.155-9.317 3.595-13.044 7.321-3.596 3.597-5.988 7.946-7.19 12.544h-88.378c-4.142 0-7.5 3.358-7.5 7.5v42.69c0 4.142 3.358 7.5 7.5 7.5s7.5-3.358 7.5-7.5v-35.19h47.726c1.883 73.123 31.247 141.597 83.168 193.521 53.694 53.697 125.083 83.27 201.016 83.27h157.59c4.142 0 7.5-3.358 7.5-7.5s-3.358-7.5-7.5-7.5zm-247.143-135.047c-2.399 2.399-5.59 3.721-8.983 3.721s-6.583-1.321-8.982-3.721-3.721-5.589-3.721-8.982 1.321-6.583 3.721-8.982 5.589-3.721 8.982-3.721 6.583 1.321 8.983 3.721c4.953 4.952 4.953 13.011 0 17.964zm-135.056-221.044c0-4.776 3.886-8.663 8.663-8.663 4.776 0 8.663 3.886 8.663 8.663v35.099c0 1.989.79 3.897 2.197 5.303l152.495 152.494c1.406 1.407 3.314 2.197 5.303 2.197h35.098c4.776 0 8.663 3.886 8.663 8.663 0 4.776-3.886 8.662-8.663 8.662h-31.75c-8.79 0-17.053-3.423-23.269-9.638l-147.762-147.76c-6.215-6.215-9.638-14.479-9.638-23.269zm-8.625 77.363c4.954-4.952 13.013-4.953 17.965 0 2.399 2.399 3.721 5.59 3.721 8.983s-1.321 6.583-3.721 8.982c-4.953 4.953-13.012 4.952-17.965 0-4.953-4.953-4.953-13.012 0-17.965z"/><path d="m504.5 469.691h-231c-4.142 0-7.5 3.358-7.5 7.5s3.358 7.5 7.5 7.5h231c4.142 0 7.5-3.358 7.5-7.5s-3.358-7.5-7.5-7.5z"/><path d="m238.5 469.691h-223.5v-254.23c0-4.142-3.358-7.5-7.5-7.5s-7.5 3.358-7.5 7.5v261.73c0 4.142 3.358 7.5 7.5 7.5h231c4.142 0 7.5-3.358 7.5-7.5s-3.358-7.5-7.5-7.5z"/><path d="m504.5 309.071h-58.589c-4.142 0-7.5 3.358-7.5 7.5s3.358 7.5 7.5 7.5h58.589c4.142 0 7.5-3.358 7.5-7.5s-3.358-7.5-7.5-7.5z"/><path d="m421.085 316.571c0-4.142-3.358-7.5-7.5-7.5h-34.345c-28.551 0-56.658-4.443-83.539-13.208-3.94-1.283-8.172.867-9.456 4.806-1.284 3.938.868 8.171 4.806 9.456 28.385 9.254 58.056 13.946 88.188 13.946h34.346c4.143 0 7.5-3.358 7.5-7.5z"/><path d="m379.24 291.746h62.63c4.142 0 7.5-3.358 7.5-7.5s-3.358-7.5-7.5-7.5h-62.63c-4.142 0-7.5 3.358-7.5 7.5s3.358 7.5 7.5 7.5z"/><path d="m474.195 291.746h30.305c4.142 0 7.5-3.358 7.5-7.5s-3.358-7.5-7.5-7.5h-30.305c-4.142 0-7.5 3.358-7.5 7.5s3.358 7.5 7.5 7.5z"/><path d="m504.5 341.396h-82.833c-4.142 0-7.5 3.358-7.5 7.5s3.358 7.5 7.5 7.5h82.833c4.142 0 7.5-3.358 7.5-7.5s-3.358-7.5-7.5-7.5z"/><path d="m359.037 341.396c-4.142 0-7.5 3.358-7.5 7.5s3.358 7.5 7.5 7.5h30.305c4.142 0 7.5-3.358 7.5-7.5s-3.358-7.5-7.5-7.5z"/></g></g></svg>