<svg id="Capa_1" enable-background="new 0 0 512 512" height="512" viewBox="0 0 512 512" width="512" xmlns="http://www.w3.org/2000/svg"><g><path d="m505.41 441.766-185.77-185.771 179.18-179.18c17.545-17.546 17.545-46.094 0-63.64-17.547-17.546-46.094-17.546-63.641 0l-179.179 179.18-179.18-179.18c-17.547-17.546-46.094-17.546-63.641 0-17.545 17.545-17.545 46.094 0 63.64l179.18 179.18-185.768 185.77c-4.25 4.25-6.591 9.9-6.591 15.91s2.341 11.661 6.59 15.91l31.82 31.82c4.386 4.386 10.147 6.579 15.909 6.579 5.763 0 11.524-2.193 15.911-6.579l238.803-238.803 10.606 10.606-47.73 47.73c-1.406 1.406-2.196 3.314-2.196 5.303s.79 3.897 2.196 5.303l169.861 169.861c4.386 4.386 10.147 6.579 15.909 6.579 5.763 0 11.524-2.193 15.911-6.58l31.818-31.819c4.25-4.25 6.591-9.9 6.591-15.91.001-6.01-2.34-11.66-6.589-15.909zm-307.746-85.008c-1.417 1.416-3.3 2.196-5.303 2.196s-3.887-.78-5.303-2.197l-31.82-31.82c-2.924-2.923-2.925-7.678-.003-10.603l5.307-5.307 42.426 42.427zm-26.516-58.337 10.606-10.606 42.426 42.426-10.606 10.607zm21.213-21.213 37.123-37.123 42.426 42.426-37.123 37.123zm53.032-74.246-42.425 42.426c-11.697-11.697-11.697-30.729 0-42.426 11.695-11.696 30.729-11.697 42.425 0zm-5.303 26.517 26.517-26.517c11.696-11.697 30.729-11.695 42.426 0 5.666 5.667 8.787 13.2 8.787 21.213s-3.121 15.547-8.787 21.213l-26.517 26.517zm92.657-7.805c-.603-11.08-5.201-21.412-13.107-29.319-8.144-8.143-18.657-12.501-29.341-13.085l134.275-134.275c11.695-11.695 30.729-11.697 42.426 0s11.697 30.729 0 42.426zm155.466-197.892c10.808 10.808 11.621 27.874 2.457 39.634-.652-10.576-4.999-20.964-13.063-29.028-8.064-8.063-18.453-12.41-29.029-13.062 5.396-4.206 11.907-6.318 18.422-6.318 7.683.001 15.365 2.925 21.213 8.774zm-464.426 0c10.807-10.809 27.876-11.621 39.635-2.455-10.576.651-20.964 4.998-29.029 13.062-8.063 8.063-12.41 18.452-13.062 29.027-9.165-11.761-8.352-28.827 2.456-39.634zm21.212 21.213c11.698-11.697 30.73-11.696 42.427 0l134.276 134.276c-10.684.584-21.198 4.942-29.341 13.085-8.143 8.144-12.5 18.658-13.084 29.342l-134.277-134.277c-11.697-11.697-11.697-30.729-.001-42.426zm14.625 449.803c-2.925 2.923-7.683 2.925-10.607 0l-31.82-31.82c-1.417-1.417-2.197-3.299-2.197-5.303 0-2.003.78-3.886 2.197-5.303l123.058-123.058c1.072 2.252 2.513 4.369 4.375 6.231l31.82 31.82c1.838 1.837 3.948 3.294 6.225 4.382zm297.139-169.86-31.82 31.82c-1.416 1.417-3.3 2.197-5.303 2.197s-3.887-.78-5.303-2.197l-5.303-5.303 42.426-42.427 5.303 5.303c2.925 2.925 2.925 7.683 0 10.607zm-26.517-37.123 10.606 10.606-42.426 42.427-10.607-10.607zm164.557 175.163-31.818 31.819c-2.925 2.923-7.683 2.925-10.607 0l-123.053-123.051c2.277-1.089 4.387-2.545 6.225-4.382l31.82-31.82c1.861-1.861 3.303-3.979 4.375-6.231l123.059 123.059c1.416 1.417 2.196 3.3 2.196 5.303 0 2.004-.78 3.886-2.197 5.303z"/></g></svg>